<?xml version="1.0" encoding="UTF-8"?>
<svg id="Layer_2" data-name="Layer 2" xmlns="http://www.w3.org/2000/svg" viewBox="0 0 455.13 639.77">
  <defs>
    <style>
      .cls-1 {
        fill: #ed1c24;
      }
    </style>
  </defs>
  <g id="Calque_1" data-name="Calque 1">
    <path class="cls-1" d="M404.75,422.16c48-94.64,11.98-214.94-79.92-268C260.02,116.74,461.48.41,454.98.22,263.52-5.63,108.63,104.79,52.78,218.95c-46.64,95.32-11.99,214.94,79.92,268.01C200.59,526.14-5.5,639.76.11,639.77c188.06.18,344.79-99.59,404.64-217.61ZM176.68,410.53c-49.67-28.68-66.69-92.18-38.01-141.86,28.68-49.67,92.18-66.69,141.86-38.01,49.68,28.68,66.69,92.18,38.01,141.85-28.68,49.68-92.17,66.69-141.86,38.01Z"/>
  </g>
</svg>